# xmcd
#
# Track frame offsets: 
#        150
#        12807
#        27685
#        42190
#        54525
#        67287
#        80032
#        95075
#        108435
#        122257
#        134742
#        148042
#        162457
#        176040
#        188657
#        201067
#        213510
#        226850
#        239752
#        253652
#        268227
#        280520
#        293072
#        304932
#        320052
#        332932
#        347060
#
# Disc length: 4794 seconds
#
# Revision: 3
# Processed by: cddbd v1.5.2PL0 Copyright (c) Steve Scherf et al.
# Submitted via: ExactAudioCopyFreeDBPlugin 1.0
#
DISCID=ae12b81b
DTITLE=Various Artist - Blowing the Fuse:  459 R&B Classics, 1945-196
DTITLE=0 [Bear Family]
DYEAR=1946
DGENRE=Rhythm and Blues
TTITLE0=Wynonie Harris - Wynonie's Blues
TTITLE1=Joe Liggins - Got a Right to Cry
TTITLE2=Johnny Moore's Three Blazers - Drifting Blues
TTITLE3=The Delta Rhythm Boys - Just A-Sittin' and A-Rockin'
TTITLE4=Louis Jordan - Buzz Me
TTITLE5=Dinah Washington - Joy Juice
TTITLE6=Lionel Hampton - Hey! Ba-Ba-Re-Bop
TTITLE7=Roy Milton - R.M. Blues
TTITLE8=The Cats'n Jammer Three - I Cover the Waterfront
TTITLE9=The Blues Woman - Voo-It! Voo-It!
TTITLE10=Big Maceo - Chicago Breakdown
TTITLE11=Andy Kirk - I Know
TTITLE12=Nat King Cole Trio - (Get Your Kicks On) Route 66
TTITLE13=Eddie Vinson - Cherry Red Blues
TTITLE14=Bull Moose Jackson - I Know Who Threw the Whiskey (In the Wel
TTITLE14=l)
TTITLE15=The Ink Spots - The Gypsy
TTITLE16=Red Callender Trio - Red Light
TTITLE17=Velma Nelson - If I Were a Itty Bitty Girl (Part 1)
TTITLE18=Roosevelt Sykes - Sunny Road
TTITLE19=Joe Turner - My Gal's A Jockey
TTITLE20=Louis Jordan - Choo Choo Ch' Boogie
TTITLE21=Arthur "Big Boy" Crudup - So Glad You're Mine
TTITLE22=Jay McShann - Voodoo Woman Blues
TTITLE23=Erskine Hawkins - After Hours
TTITLE24=Bill Samuels - Port Wine
TTITLE25=T-Bone Walker - Come Back to Me Baby
TTITLE26=Julia Lee - Gotta Gimmie Whatcha' Got
EXTD=
EXTT0=
EXTT1=
EXTT2=
EXTT3=
EXTT4=
EXTT5=
EXTT6=
EXTT7=
EXTT8=
EXTT9=
EXTT10=
EXTT11=
EXTT12=
EXTT13=
EXTT14=
EXTT15=
EXTT16=
EXTT17=
EXTT18=
EXTT19=
EXTT20=
EXTT21=
EXTT22=
EXTT23=
EXTT24=
EXTT25=
EXTT26=
PLAYORDER=
